HIERARCHY
ROOT Hips
{
	OFFSET -0.001795 -0.223333 0.028219
	CHANNELS 6 Xposition Yposition Zposition Zrotation Yrotation Xrotation 
	JOINT LeftUpLeg
	{
		OFFSET 0.069520 -0.091406 -0.006815
		CHANNELS 3 Zrotation Yrotation Xrotation
		JOINT LeftLeg
		{
			OFFSET 0.034277 -0.375199 -0.004496
			CHANNELS 3 Zrotation Yrotation Xrotation
			JOINT LeftFoot
			{
				OFFSET -0.013596 -0.397961 -0.043693
				CHANNELS 3 Zrotation Yrotation Xrotation
				JOINT LeftToe
				{
					OFFSET 0.026358 -0.055791 0.119288
					CHANNELS 3 Zrotation Yrotation Xrotation
					End Site
					{
						OFFSET 0.000000 0.000000 0.000000
					}
				}
			}
		}
	}
	JOINT RightUpLeg
	{
		OFFSET -0.067670 -0.090522 -0.004320
		CHANNELS 3 Zrotation Yrotation Xrotation
		JOINT RightLeg
		{
			OFFSET -0.038290 -0.382569 -0.008850
			CHANNELS 3 Zrotation Yrotation Xrotation
			JOINT RightFoot
			{
				OFFSET 0.015774 -0.398415 -0.042312
				CHANNELS 3 Zrotation Yrotation Xrotation
				JOINT RightToe
				{
					OFFSET -0.025372 -0.048144 0.123348
					CHANNELS 3 Zrotation Yrotation Xrotation
					End Site
					{
						OFFSET 0.000000 0.000000 0.000000
					}
				}
			}
		}
	}
	JOINT Spine
	{
		OFFSET -0.002533 0.108963 -0.026696
		CHANNELS 3 Zrotation Yrotation Xrotation
		JOINT Spine1
		{
			OFFSET 0.005487 0.135180 0.001092
			CHANNELS 3 Zrotation Yrotation Xrotation
			JOINT Spine2
			{
				OFFSET 0.001457 0.052922 0.025425
				CHANNELS 3 Zrotation Yrotation Xrotation
				JOINT Neck
				{
					OFFSET -0.002778 0.213870 -0.042857
					CHANNELS 3 Zrotation Yrotation Xrotation
					JOINT Head
					{
						OFFSET 0.005152 0.064970 0.051349
						CHANNELS 3 Zrotation Yrotation Xrotation
						End Site
						{
							OFFSET 0.000000 0.000000 0.000000
						}
					}
				}
				JOINT LeftShoulder
				{
					OFFSET 0.078845 0.121749 -0.034090
					CHANNELS 3 Zrotation Yrotation Xrotation
					JOINT LeftArm
					{
						OFFSET 0.090977 0.030469 -0.008868
						CHANNELS 3 Zrotation Yrotation Xrotation
						JOINT LeftForeArm
						{
							OFFSET 0.259612 -0.012772 -0.027456
							CHANNELS 3 Zrotation Yrotation Xrotation
							JOINT LeftHand
							{
								OFFSET 0.249234 0.008986 -0.001171
								CHANNELS 3 Zrotation Yrotation Xrotation
								End Site
								{
									OFFSET 0.000000 0.000000 0.000000
								}
							}
						}
					}
				}
				JOINT RightShoulder
				{
					OFFSET -0.081759 0.118833 -0.038615
					CHANNELS 3 Zrotation Yrotation Xrotation
					JOINT RightArm
					{
						OFFSET -0.096012 0.032551 -0.009143
						CHANNELS 3 Zrotation Yrotation Xrotation
						JOINT RightForeArm
						{
							OFFSET -0.253742 -0.013329 -0.021401
							CHANNELS 3 Zrotation Yrotation Xrotation
							JOINT RightHand
							{
								OFFSET -0.255298 0.007772 -0.005559
								CHANNELS 3 Zrotation Yrotation Xrotation
								End Site
								{
									OFFSET 0.000000 0.000000 0.000000
								}
							}
						}
					}
				}
			}
		}
	}
}
MOTION
Frames: 10
Frame Time: 0.050000
0.000000 0.973941 0.000000 -0.274246 -1.014925 2.899707 2.143415 -0.030624 0.090293 -0.658270 0.135390 -2.232876 0.568248 5.635086 12.685893 0.000000 0.000000 0.000000 -0.715448 0.122042 -1.064271 -0.120787 0.057329 1.090263 -2.849265 -10.859595 13.746831 0.000000 0.000000 0.000000 -3.200207 0.038034 1.618084 4.505037 -0.507454 -23.653584 0.526489 0.471242 25.811384 -0.341511 1.552460 -21.783217 0.000000 0.000000 0.000000 3.568458 1.557780 -0.369661 -4.491473 -27.693229 -1.521792 104.328031 -31.214085 -37.458024 0.000000 0.000000 0.000000 -14.587878 5.803395 1.721256 10.074470 26.156952 -0.729821 -96.926108 28.405450 -28.288183 0.000000 0.000000 0.000000 
-0.002209 0.973201 0.002818 -0.929655 -1.018187 3.358853 3.085644 -0.062862 -0.092797 -0.719887 0.157567 -2.841762 0.676567 5.472938 11.516181 0.000000 0.000000 0.000000 0.094471 0.092387 -0.952878 -0.369952 0.055209 0.395710 -3.365912 -11.669021 13.153451 0.000000 0.000000 0.000000 -3.305403 0.057365 0.740387 4.609056 -0.528845 -23.686664 1.433495 0.464272 25.898091 -1.435494 2.244451 -22.083132 0.000000 0.000000 0.000000 2.674048 1.426549 -0.369908 -3.474532 -30.375945 -1.768542 103.358761 -30.819069 -36.477394 0.000000 0.000000 0.000000 -14.041282 5.005302 1.558100 10.499079 25.248979 -0.724979 -100.403043 29.394512 -31.104738 0.000000 0.000000 0.000000 
-0.003815 0.973724 0.004833 -0.603849 -1.969821 3.295253 3.022576 -0.071681 -0.338187 -0.948419 0.146442 -1.584427 0.897262 5.647996 11.220992 0.000000 0.000000 0.000000 -0.327973 0.102199 -0.952265 -0.204697 0.018970 -0.041841 -3.188628 -11.425366 12.957919 0.000000 0.000000 0.000000 -3.184537 0.057264 0.584863 5.179830 -0.602888 -24.707585 0.279789 1.389170 27.740951 -0.194442 1.530671 -22.046467 0.000000 0.000000 0.000000 3.380514 2.004136 -0.529863 -3.100626 -31.769825 -1.965867 101.114326 -32.160312 -36.818675 0.000000 0.000000 0.000000 -13.053879 5.006612 1.475408 11.671765 25.731379 -0.647176 -103.365305 29.142636 -32.084184 0.000000 0.000000 0.000000 
-0.005031 0.974990 0.005964 -0.528795 -1.552736 3.855448 2.836853 -0.088305 -0.526887 -0.629524 0.126891 -2.019502 0.537775 5.253959 11.777540 0.000000 0.000000 0.000000 -0.060968 0.140564 -1.406027 -0.396287 0.043980 0.084857 -3.409740 -11.953491 13.904444 0.000000 0.000000 0.000000 -3.776300 0.086045 -0.196597 5.769933 -0.800812 -23.813278 -0.389298 0.054488 27.418008 -0.062414 1.250733 -21.698654 0.000000 0.000000 0.000000 3.629902 2.594224 -0.745207 -3.104472 -32.402989 -1.935109 100.426592 -33.810882 -37.661973 0.000000 0.000000 0.000000 -13.388587 5.024684 1.622779 11.939478 26.921837 -0.618877 -103.531785 29.777066 -33.533485 0.000000 0.000000 0.000000 
-0.005543 0.976535 0.006276 -0.496806 -2.157294 3.819706 2.846654 -0.083274 -0.501460 -0.981813 0.158578 -1.928202 0.821321 5.605974 11.611609 0.000000 0.000000 0.000000 0.011087 0.148384 -1.510308 -0.716082 0.073712 0.036339 -2.582002 -10.570086 13.914543 0.000000 0.000000 0.000000 -4.144756 0.093811 0.035736 6.231943 -0.968264 -23.227863 -0.343100 0.446052 26.695898 -0.051172 1.206684 -20.700548 0.000000 0.000000 0.000000 3.988388 1.957338 -0.516849 -2.925560 -32.582445 -1.944586 100.243046 -34.092992 -37.831054 0.000000 0.000000 0.000000 -12.908345 5.231083 1.697364 12.652555 26.731534 -0.517068 -104.681287 30.974740 -35.549178 0.000000 0.000000 0.000000 
-0.005299 0.977685 0.005402 -0.540898 -2.049413 4.191266 2.736052 -0.124361 -1.078948 -0.808114 0.140622 -1.891753 0.998043 5.999283 11.949299 0.000000 0.000000 0.000000 0.025694 0.209190 -2.120486 -0.934873 0.098171 0.083595 -2.368638 -10.269931 14.318672 0.000000 0.000000 0.000000 -4.282976 0.100661 0.410069 6.340141 -0.956733 -23.611654 -0.373673 -0.191889 27.128269 -0.466228 1.408119 -21.391475 0.000000 0.000000 0.000000 3.902135 2.248380 -0.642165 -3.087737 -33.112253 -1.929209 101.322302 -33.839935 -37.923067 0.000000 0.000000 0.000000 -13.375816 5.494067 1.809694 13.388521 27.408818 -0.446679 -104.355506 31.108304 -35.776356 0.000000 0.000000 0.000000 
-0.004500 0.977753 0.003514 -0.529490 -2.158335 4.381526 2.793105 -0.169119 -1.725906 -0.941158 0.144665 -1.548340 0.914401 5.790488 11.739349 0.000000 0.000000 0.000000 0.033649 0.274783 -2.778564 -1.100283 0.129933 0.388574 -2.023898 -9.597092 13.985422 0.000000 0.000000 0.000000 -4.083080 0.093839 1.113844 6.112235 -0.922926 -23.351694 -0.304528 -0.150680 26.769607 -0.609004 1.513943 -21.751282 0.000000 0.000000 0.000000 3.530305 1.631860 -0.453613 -3.339073 -34.015078 -1.921064 102.899211 -34.360378 -39.409953 0.000000 0.000000 0.000000 -13.096337 5.900681 1.922292 13.334857 26.987007 -0.455362 -105.812066 31.971534 -37.741010 0.000000 0.000000 0.000000 
-0.003522 0.976388 0.001178 -0.556207 -2.143542 4.994836 2.748499 -0.234407 -2.639282 -1.033475 0.144765 -1.192758 1.249550 6.235368 11.334084 0.000000 0.000000 0.000000 -0.101214 0.410608 -4.122092 -0.845265 0.142508 1.203517 -2.013630 -9.424805 13.355044 0.000000 0.000000 0.000000 -3.882690 0.092510 1.429534 5.825013 -0.863229 -23.168420 -0.139610 -0.151970 27.039140 -0.601398 1.537988 -22.422216 0.000000 0.000000 0.000000 2.762590 1.143015 -0.320369 -2.709048 -34.995349 -2.106292 103.876904 -34.316977 -40.029004 0.000000 0.000000 0.000000 -12.961207 6.180048 1.975689 13.538055 26.792254 -0.457589 -107.450643 33.435685 -40.541483 0.000000 0.000000 0.000000 
-0.002482 0.974674 -0.000677 -0.479505 -2.057851 5.333399 2.607400 -0.289708 -3.409996 -1.015158 0.131713 -0.748278 1.201709 6.073667 10.995869 0.000000 0.000000 0.000000 -0.385916 0.484024 -4.861572 -0.664873 0.141808 1.615782 -1.974278 -9.311913 13.232354 0.000000 0.000000 0.000000 -3.882228 0.090979 2.225902 5.750202 -0.879414 -22.676707 -0.152048 -0.188253 26.697694 -0.935634 1.774357 -23.021941 0.000000 0.000000 0.000000 1.957336 0.554589 -0.143387 -1.894602 -35.624028 -2.297866 104.613826 -34.727366 -41.044261 0.000000 0.000000 0.000000 -12.593868 6.767682 2.122286 13.570094 26.467409 -0.457774 -109.009877 35.335317 -43.969783 0.000000 0.000000 0.000000 
-0.001678 0.973776 -0.001458 -0.487120 -2.278684 5.680496 2.455659 -0.335608 -4.040223 -0.872030 0.116739 -0.740961 1.339997 6.256325 10.905674 0.000000 0.000000 0.000000 -0.543933 0.549264 -5.538532 -0.920290 0.187811 1.961047 -1.659829 -8.745542 13.132065 0.000000 0.000000 0.000000 -3.724743 0.086133 2.473045 5.538594 -0.861022 -22.248810 -0.056924 -0.046317 26.946663 -0.906232 1.778975 -23.561132 0.000000 0.000000 0.000000 1.365072 -0.063527 0.051863 -1.434751 -36.125591 -2.437567 105.322348 -35.351360 -42.278954 0.000000 0.000000 0.000000 -12.448516 7.063787 2.188112 13.811978 26.360131 -0.444878 -111.175694 37.292233 -48.064976 0.000000 0.000000 0.000000 
